<svg xmlns="http://www.w3.org/2000/svg" viewBox="0 0 420 470" fill="none" stroke="#14171a" stroke-width="1.1" stroke-linecap="round" stroke-linejoin="round">
  <!-- Vitruvian frame: circle + square -->
  <circle cx="210" cy="210" r="192" />
  <rect x="26" y="66" width="368" height="368" />

  <!-- Head -->
  <circle cx="210" cy="82" r="23" />
  <!-- Neck -->
  <path d="M201 103 C201 110 201 116 200 121 M219 103 C219 110 219 116 220 121" />

  <!-- Torso (shoulders → waist) -->
  <path d="M186 124 C182 158 184 202 193 238 C201 247 219 247 227 238 C236 202 238 158 234 124 C221 113 199 113 186 124 Z" />

  <!-- Arms, position A — outstretched horizontally to the circle -->
  <path d="M189 129 C150 135 92 147 42 159" />
  <path d="M231 129 C270 135 328 147 378 159" />
  <!-- Arms, position B — raised toward the upper circle -->
  <path d="M191 125 C151 110 101 91 67 69" />
  <path d="M229 125 C269 110 319 91 353 69" />

  <!-- Hips → mermaid tail, narrowing -->
  <path d="M193 240 C183 292 187 338 210 364 C233 338 237 292 227 240" />
  <!-- Fluke (two lobes) -->
  <path d="M210 364 C189 386 165 402 145 414 C172 405 197 401 210 393 C223 401 248 405 275 414 C255 402 231 386 210 364" />
  <!-- Scale arcs -->
  <path d="M196 272 C203 279 217 279 224 272" />
  <path d="M194 304 C202 312 218 312 226 304" />
  <path d="M197 335 C204 342 216 342 223 335" />

  <!-- Navel at the circle's centre -->
  <circle cx="210" cy="210" r="1.8" fill="#14171a" stroke="none" />
</svg>
