<svg xmlns="http://www.w3.org/2000/svg" viewBox="0 0 460.0 484.0">
  <!-- Teal annulus favicon — the exact space between the homepage's two
       crisp outline paths (OYSTER_RINGS[8] outer, OYSTER_RINGS[6] inner)
       from app/lib/oyster.ts, filled with the site's teal accent via
       fill-rule evenodd. Everything outside the outer line and inside the
       inner line stays fully transparent. -->
  <path
    fill-rule="evenodd"
    fill="#0d8f88"
    d="M 163.40 470.51 C 155.24 471.15 146.33 471.15 138.16 470.57 C 129.99 469.99 122.18 468.50 114.38 467.01 C 106.58 465.52 99.04 463.39 91.35 461.63 C 83.66 459.87 74.46 460.26 68.23 456.48 C 62.00 452.70 58.47 445.19 53.98 438.93 C 49.50 432.67 45.68 425.50 41.34 418.91 C 37.00 412.32 31.69 406.23 27.96 399.39 C 24.22 392.55 21.27 385.32 18.91 377.88 C 16.55 370.44 14.66 362.76 13.80 354.74 C 12.94 346.72 13.34 337.96 13.75 329.76 C 14.17 321.57 15.33 313.58 16.29 305.56 C 17.26 297.54 18.31 289.56 19.54 281.65 C 20.76 273.74 22.59 266.08 23.65 258.10 C 24.72 250.12 24.78 241.73 25.91 233.77 C 27.03 225.82 28.96 218.20 30.40 210.38 C 31.84 202.56 32.75 194.52 34.57 186.85 C 36.38 179.18 37.38 171.08 41.30 164.38 C 45.21 157.68 51.99 151.83 58.08 146.65 C 64.16 141.47 71.20 137.69 77.80 133.30 C 84.41 128.92 90.82 124.08 97.69 120.35 C 104.57 116.62 112.25 114.84 119.05 110.93 C 125.85 107.02 131.93 101.39 138.49 96.91 C 145.06 92.43 151.68 88.09 158.42 84.04 C 165.17 80.00 172.08 76.38 178.96 72.66 C 185.83 68.93 192.73 65.26 199.67 61.69 C 206.61 58.11 213.49 54.40 220.59 51.21 C 227.69 48.02 234.85 44.99 242.26 42.56 C 249.67 40.14 257.36 38.37 265.06 36.64 C 272.76 34.90 280.60 33.51 288.46 32.14 C 296.31 30.78 304.67 30.65 312.19 28.47 C 319.70 26.28 326.16 21.55 333.54 19.04 C 340.92 16.54 348.55 14.11 356.47 13.44 C 364.40 12.77 373.13 14.41 381.08 15.01 C 389.03 15.61 397.67 13.94 404.17 17.04 C 410.68 20.13 416.45 27.05 420.13 33.60 C 423.80 40.15 423.67 48.97 426.21 56.33 C 428.75 63.70 432.77 70.46 435.35 77.80 C 437.94 85.15 440.20 92.63 441.73 100.42 C 443.25 108.21 443.70 116.44 444.50 124.52 C 445.31 132.61 446.27 140.67 446.56 148.93 C 446.85 157.18 447.00 165.95 446.25 174.06 C 445.50 182.16 443.49 189.75 442.06 197.58 C 440.62 205.40 439.32 213.28 437.62 220.99 C 435.92 228.71 434.48 236.53 431.85 243.86 C 429.22 251.19 425.24 257.96 421.82 264.96 C 418.40 271.96 414.90 278.93 411.34 285.87 C 407.78 292.82 403.03 299.27 400.47 306.63 C 397.91 313.99 397.72 322.33 395.98 330.02 C 394.23 337.72 393.49 345.83 390.01 352.80 C 386.53 359.78 380.60 365.84 375.10 371.88 C 369.59 377.93 362.97 383.26 356.96 389.06 C 350.94 394.86 345.00 400.85 339.00 406.69 C 333.01 412.54 327.16 418.76 320.96 424.11 C 314.76 429.45 308.35 434.30 301.78 438.78 C 295.22 443.26 288.71 447.86 281.58 450.97 C 274.45 454.08 266.97 456.36 259.00 457.44 C 251.03 458.52 241.90 456.80 233.75 457.44 C 225.59 458.08 217.86 459.74 210.08 461.29 C 202.31 462.84 194.87 465.20 187.09 466.74 C 179.31 468.28 171.55 469.87 163.40 470.51 Z
       M 175.32 420.50 C 168.71 421.01 161.50 421.02 154.88 420.54 C 148.26 420.07 141.93 418.87 135.62 417.66 C 129.30 416.46 123.19 414.72 116.96 413.30 C 110.73 411.88 103.28 412.19 98.24 409.13 C 93.19 406.07 90.33 399.99 86.70 394.92 C 83.07 389.85 79.97 384.04 76.45 378.70 C 72.94 373.36 68.64 368.43 65.61 362.89 C 62.59 357.35 60.20 351.49 58.29 345.47 C 56.38 339.44 54.84 333.22 54.15 326.72 C 53.45 320.23 53.77 313.13 54.11 306.49 C 54.45 299.85 55.39 293.38 56.17 286.88 C 56.95 280.39 57.80 273.92 58.79 267.52 C 59.79 261.11 61.27 254.90 62.13 248.44 C 62.99 241.98 63.04 235.18 63.95 228.74 C 64.87 222.30 66.43 216.13 67.59 209.79 C 68.76 203.46 69.50 196.94 70.97 190.73 C 72.44 184.52 73.25 177.96 76.42 172.53 C 79.59 167.10 85.08 162.36 90.01 158.17 C 94.94 153.97 100.64 150.91 105.99 147.36 C 111.34 143.81 116.53 139.88 122.10 136.86 C 127.67 133.84 133.89 132.40 139.40 129.23 C 144.91 126.07 149.83 121.51 155.15 117.88 C 160.47 114.25 165.83 110.73 171.29 107.46 C 176.75 104.18 182.36 101.25 187.93 98.23 C 193.50 95.21 199.08 92.25 204.70 89.35 C 210.32 86.45 215.90 83.44 221.65 80.86 C 227.40 78.28 233.20 75.83 239.20 73.86 C 245.21 71.89 251.43 70.46 257.67 69.06 C 263.91 67.65 270.26 66.52 276.62 65.42 C 282.98 64.32 289.76 64.21 295.84 62.44 C 301.93 60.67 307.16 56.83 313.14 54.81 C 319.12 52.78 325.30 50.81 331.71 50.27 C 338.13 49.72 345.21 51.05 351.65 51.54 C 358.09 52.02 365.08 50.67 370.35 53.18 C 375.62 55.69 380.30 61.29 383.27 66.60 C 386.25 71.90 386.15 79.04 388.20 85.01 C 390.26 90.98 393.51 96.45 395.60 102.40 C 397.70 108.35 399.53 114.41 400.77 120.72 C 402.00 127.03 402.37 133.70 403.02 140.25 C 403.67 146.79 404.45 153.33 404.68 160.01 C 404.92 166.70 405.04 173.80 404.43 180.37 C 403.82 186.93 402.20 193.08 401.04 199.42 C 399.87 205.76 398.82 212.14 397.44 218.39 C 396.07 224.64 394.90 230.97 392.77 236.91 C 390.63 242.84 387.41 248.33 384.64 254.00 C 381.88 259.67 379.04 265.31 376.16 270.94 C 373.27 276.57 369.43 281.79 367.35 287.75 C 365.28 293.71 365.12 300.47 363.71 306.70 C 362.30 312.93 361.69 319.50 358.87 325.15 C 356.06 330.80 351.26 335.71 346.80 340.61 C 342.34 345.50 336.98 349.82 332.10 354.52 C 327.23 359.22 322.42 364.07 317.56 368.80 C 312.70 373.54 307.97 378.58 302.95 382.91 C 297.92 387.24 292.73 391.17 287.42 394.79 C 282.10 398.42 276.82 402.15 271.05 404.67 C 265.27 407.19 259.22 409.03 252.76 409.91 C 246.30 410.78 238.91 409.39 232.30 409.91 C 225.70 410.43 219.44 411.77 213.14 413.02 C 206.84 414.28 200.82 416.20 194.51 417.44 C 188.21 418.69 181.93 419.98 175.32 420.50 Z"
  />
</svg>
